<?xml version="1.0" encoding="utf-8"?>
<!-- Generator: Adobe Illustrator 13.0.2, SVG Export Plug-In . SVG Version: 6.00 Build 14948)  -->
<!DOCTYPE svg PUBLIC "-//W3C//DTD SVG 1.1//EN" "http://www.w3.org/Graphics/SVG/1.1/DTD/svg11.dtd">
<svg version="1.1" id="Ebene_1" xmlns="http://www.w3.org/2000/svg" xmlns:xlink="http://www.w3.org/1999/xlink" x="0px" y="0px"
	 width="552.391px" height="145.081px" viewBox="0 0 552.391 145.081" enable-background="new 0 0 552.391 145.081"
	 xml:space="preserve">
<g>
	<path fill="#00205B" d="M122.613,104.91V85.501h-4.605v18.123c0,3.586-1.642,5.495-5.006,5.495c-3.404,0-4.926-1.364-4.926-5.495
		V85.501h-4.645v19.448c0,4.326,2.283,7.99,9.571,7.99C119.089,112.939,122.613,109.86,122.613,104.91L122.613,104.91z"/>
	<path fill="#00205B" d="M148.801,112.472V85.501h-4.365l0.08,12.315c0,2.456,0.28,6.314,0.4,7.679l-0.12,0.116
		c-0.36-1.247-1.562-4.442-2.843-6.938l-6.728-13.173h-5.206v26.971h4.525l-0.16-13.057c-0.04-2.378-0.08-5.223-0.28-7.483
		l0.12-0.117c0.521,1.598,2.042,4.989,3.524,7.99l6.207,12.667H148.801L148.801,112.472z"/>
	<polygon fill="#00205B" points="161.049,112.472 161.049,85.501 156.323,85.501 156.323,112.472 161.049,112.472 	"/>
	<path fill="#00205B" d="M187.635,85.501h-4.805l-5.086,15.044c-1.362,4.015-1.682,5.651-1.682,5.651h-0.08
		c0,0-0.32-1.987-1.441-5.418l-5.006-15.277h-5.045l9.331,27.087h4.285L187.635,85.501L187.635,85.501z"/>
	<polygon fill="#00205B" points="207.047,112.472 207.047,108.651 195.955,108.651 195.955,100.233 204.404,100.233 204.404,96.53 
		195.875,96.53 195.875,89.164 206.046,89.164 206.647,85.501 191.27,85.501 191.27,112.472 207.047,112.472 	"/>
	<path fill-rule="evenodd" clip-rule="evenodd" fill="#00205B" d="M231.829,112.472l-4.084-6.47
		c-1.441-2.261-3.284-4.872-4.285-5.379c4.165,0,6.888-3.235,6.888-7.405c0-4.209-2.803-7.717-9.01-7.717h-8.449v26.971h4.525
		v-11.654c0.881,0.039,1.281,0.312,1.802,0.819c1.522,1.48,2.803,3.352,4.726,6.664l2.403,4.171H231.829L231.829,112.472z
		 M225.542,93.257c0,1.403-0.48,2.533-1.241,3.273c-0.841,0.818-2.123,1.131-4.525,1.131h-2.363v-8.536h2.523
		C224.021,89.125,225.542,90.528,225.542,93.257L225.542,93.257z"/>
	<path fill="#00205B" d="M254.085,104.325c0-4.053-2.803-6.548-6.808-7.678l-3.284-0.936c-2.723-0.779-3.684-1.637-3.684-3.312
		c0-2.222,1.802-3.664,4.525-3.664c2.202,0,3.964,0.585,6.527,2.065l2.082-3.156c-2.442-1.677-5.606-2.572-8.77-2.572
		c-5.566,0-9.411,3.234-9.411,7.989c0,1.56,0.401,2.846,1.162,3.937c1.041,1.521,2.843,2.533,5.366,3.235l2.964,0.818
		c2.843,0.779,4.125,2.026,4.125,4.015c0,2.688-2.042,4.287-5.446,4.287c-2.803,0-5.005-0.818-7.488-2.222l-1.762,3.43
		c2.723,1.598,5.927,2.416,9.09,2.416C250.361,112.978,254.085,108.808,254.085,104.325L254.085,104.325z"/>
	<polygon fill="#00205B" points="264.572,112.472 264.572,85.501 259.847,85.501 259.847,112.472 264.572,112.472 	"/>
	<polygon fill="#00205B" points="287.994,85.501 268.813,85.501 268.813,89.242 275.821,89.242 275.821,112.472 280.426,112.472 
		280.426,89.242 287.395,89.242 287.994,85.501 	"/>
	<path fill-rule="evenodd" clip-rule="evenodd" fill="#00205B" d="M306.449,81.681c0-1.52-1.24-2.729-2.684-2.729
		c-1.521,0-2.723,1.209-2.723,2.729c0,1.481,1.201,2.729,2.684,2.729S306.449,83.162,306.449,81.681L306.449,81.681z
		 M298.041,81.681c0-1.52-1.201-2.729-2.684-2.729s-2.684,1.209-2.684,2.729c0,1.481,1.201,2.729,2.684,2.729
		S298.041,83.162,298.041,81.681L298.041,81.681z M311.496,112.472l-8.85-27.01h-5.326l-9.092,27.01h4.766l2.242-7.094h8.971
		l2.242,7.094H311.496L311.496,112.472z M303.166,101.637h-6.809c0.641-1.793,3.484-11.498,3.484-11.498h0.041
		C300.082,91.191,302.887,101.052,303.166,101.637L303.166,101.637z"/>
	<polygon fill="#00205B" points="331.389,85.501 312.207,85.501 312.207,89.242 319.215,89.242 319.215,112.472 323.82,112.472 
		323.82,89.242 330.789,89.242 331.389,85.501 	"/>
	<path fill-rule="evenodd" clip-rule="evenodd" fill="#00205B" d="M361.49,93.568c0-2.962-1.361-5.379-3.805-6.782
		c-1.521-0.896-3.002-1.285-7.047-1.285h-7.369v26.971h4.564v-10.29h4.686C357.525,102.182,361.49,98.869,361.49,93.568
		L361.49,93.568z M356.404,93.841c0,3.196-1.561,4.755-4.965,4.755h-3.605v-9.471h3.605c1.803,0,3.004,0.468,3.844,1.325
		C356.045,91.229,356.404,92.36,356.404,93.841L356.404,93.841z"/>
	<path fill-rule="evenodd" clip-rule="evenodd" fill="#00205B" d="M383.875,112.472l-8.85-27.01h-5.326l-9.09,27.01h4.766
		l2.242-7.094h8.969l2.244,7.094H383.875L383.875,112.472z M375.545,101.637h-6.807c0.641-1.793,3.482-11.498,3.482-11.498h0.041
		C372.461,91.191,375.266,101.052,375.545,101.637L375.545,101.637z"/>
	<path fill-rule="evenodd" clip-rule="evenodd" fill="#00205B" d="M406.973,99.063c0-4.209-0.961-7.443-3.004-9.743
		c-2.604-2.885-5.688-3.819-10.893-3.819h-5.766v26.971h6.848c5.166,0,7.568-0.896,9.891-3.781
		C405.932,106.353,406.973,103.156,406.973,99.063L406.973,99.063z M401.846,99.531c0,6.119-1.963,9.276-6.848,9.276h-3.043V89.047
		h2.924c2.482,0,3.924,0.624,5.205,2.339C401.525,93.296,401.846,96.062,401.846,99.531L401.846,99.531z"/>
	<polygon fill="#00205B" points="428.465,112.472 428.465,108.651 417.373,108.651 417.373,100.233 425.822,100.233 425.822,96.53 
		417.293,96.53 417.293,89.164 427.465,89.164 428.064,85.501 412.688,85.501 412.688,112.472 428.465,112.472 	"/>
	<path fill-rule="evenodd" clip-rule="evenodd" fill="#00205B" d="M453.248,112.472l-4.086-6.47
		c-1.441-2.261-3.283-4.872-4.285-5.379c4.166,0,6.889-3.235,6.889-7.405c0-4.209-2.803-7.717-9.01-7.717h-8.449v26.971h4.523
		v-11.654c0.883,0.039,1.283,0.312,1.803,0.819c1.521,1.48,2.803,3.352,4.725,6.664l2.404,4.171H453.248L453.248,112.472z
		 M446.961,93.257c0,1.403-0.48,2.533-1.242,3.273c-0.842,0.818-2.123,1.131-4.525,1.131h-2.363v-8.536h2.523
		C445.439,89.125,446.961,90.528,446.961,93.257L446.961,93.257z"/>
	<path fill-rule="evenodd" clip-rule="evenodd" fill="#00205B" d="M477.064,104.832c0-2.689-1.281-5.729-5.887-6.82
		c3.084-0.857,4.766-3.001,4.766-5.886c0-2.26-1.041-4.014-3.123-5.3c-1.723-1.053-3.164-1.325-7.289-1.325h-7.328v26.971h8.049
		C473.26,112.472,477.064,110.172,477.064,104.832L477.064,104.832z M471.098,92.828c0,0.701-0.24,1.832-1.08,2.688
		c-0.883,0.896-1.723,1.014-3.404,1.014h-3.926v-7.366h3.564c1.322,0,2.043,0.117,2.604,0.312
		C470.178,89.943,471.098,91.269,471.098,92.828L471.098,92.828z M471.979,104.403c0,2.416-1.521,4.365-5.045,4.365h-4.166v-8.535
		h4.045c1.322,0,1.883,0.039,2.562,0.233C470.898,100.896,471.979,102.494,471.979,104.403L471.979,104.403z"/>
	<path fill-rule="evenodd" clip-rule="evenodd" fill="#00205B" d="M503.973,99.025c0-7.874-3.764-13.915-11.572-13.915
		c-6.93,0-11.574,4.989-11.574,13.875c0,7.99,3.885,13.915,11.773,13.915C499.809,112.9,503.973,107.443,503.973,99.025
		L503.973,99.025z M498.727,99.298c0,7.249-2.123,10.211-6.248,10.211c-4.725,0-6.527-3.858-6.527-10.796
		c0-6.47,1.764-10.134,6.408-10.134C497.324,88.579,498.727,92.711,498.727,99.298L498.727,99.298z"/>
	<path fill-rule="evenodd" clip-rule="evenodd" fill="#00205B" d="M528.441,112.472l-4.086-6.47
		c-1.441-2.261-3.283-4.872-4.285-5.379c4.166,0,6.889-3.235,6.889-7.405c0-4.209-2.803-7.717-9.01-7.717h-8.451v26.971h4.525
		v-11.654c0.881,0.039,1.281,0.312,1.803,0.819c1.521,1.48,2.803,3.352,4.725,6.664l2.402,4.171H528.441L528.441,112.472z
		 M522.152,93.257c0,1.403-0.48,2.533-1.24,3.273c-0.842,0.818-2.123,1.131-4.525,1.131h-2.363v-8.536h2.523
		C520.631,89.125,522.152,90.528,522.152,93.257L522.152,93.257z"/>
	<path fill="#00205B" d="M552.338,112.472V85.501h-4.365l0.08,12.315c0,2.456,0.281,6.314,0.4,7.679l-0.119,0.116
		c-0.361-1.247-1.562-4.442-2.844-6.938l-6.729-13.173h-5.205v26.971h4.525l-0.16-13.057c-0.041-2.378-0.08-5.223-0.281-7.483
		l0.121-0.117c0.52,1.598,2.041,4.989,3.523,7.99l6.207,12.667H552.338L552.338,112.472z"/>
	<path fill-rule="evenodd" clip-rule="evenodd" fill="#00205B" d="M117.227,128.677c0-2.175-0.501-3.509-1.408-4.521
		c-1.098-1.235-2.578-1.507-5.18-1.507h-3.675l-3.533,17.071h4.153c3.127,0,4.774-0.642,6.445-2.347
		C115.986,135.372,117.227,131.542,117.227,128.677L117.227,128.677z M114.268,128.751c0,1.334-0.525,4.62-2.077,6.868
		c-0.764,1.087-2.029,1.778-3.795,1.778h-1.694l2.554-12.501h1.719c1.384,0,2.196,0.321,2.769,1.235
		C114.148,126.799,114.268,127.663,114.268,128.751L114.268,128.751z"/>
	<path fill-rule="evenodd" clip-rule="evenodd" fill="#00205B" d="M124.646,123.587c0-0.988-0.764-1.804-1.718-1.804
		c-0.979,0-1.766,0.815-1.766,1.828c0,0.988,0.788,1.804,1.742,1.804C123.883,125.415,124.646,124.6,124.646,123.587
		L124.646,123.587z M123.525,126.947l-2.745,0.42l-2.53,12.353h2.673L123.525,126.947L123.525,126.947z"/>
	<path fill-rule="evenodd" clip-rule="evenodd" fill="#00205B" d="M135.453,130.258c0-2.224-1.48-3.336-3.819-3.336
		c-1.552,0-2.888,0.52-4.082,1.705c-1.647,1.655-2.697,4.349-2.697,6.844c0,2.965,1.718,4.57,4.296,4.57
		c2.029,0,3.461-0.568,4.917-1.778l-0.812-1.681c-1.122,0.914-2.148,1.359-3.414,1.359c-1.312,0-2.196-0.741-2.196-2.298
		c0-0.396,0.096-1.062,0.144-1.31c0.215,0,0.788,0.099,1.456,0.099c2.482,0,4.129-0.568,5.131-1.581
		C135.071,132.16,135.453,131.271,135.453,130.258L135.453,130.258z M132.804,130.431c0,0.519-0.191,0.914-0.501,1.235
		c-0.573,0.593-1.575,0.815-3.031,0.815c-0.406,0-0.907-0.074-1.05-0.074c0.525-2.348,1.719-3.459,3.079-3.459
		C132.398,128.948,132.804,129.591,132.804,130.431L132.804,130.431z"/>
	<path fill="#00205B" d="M157.283,122.648h-2.745l-2.315,11.241c-0.239,1.21-0.382,1.605-0.692,2.124
		c-0.549,0.915-1.6,1.582-3.055,1.582c-1.408,0-2.268-0.568-2.411-1.557c-0.071-0.42,0-1.137,0.239-2.298l2.291-11.093h-2.769
		l-2.411,11.686c-0.144,0.717-0.215,1.507-0.215,2.026c0,2.371,1.909,3.681,4.869,3.681c2.578,0,3.843-0.766,4.726-1.433
		c1.265-0.939,1.623-2.001,2.101-4.299L157.283,122.648L157.283,122.648z"/>
	<path fill="#00205B" d="M168.616,129.418c0-1.508-0.907-2.471-2.41-2.471c-1.671,0-3.199,0.79-4.344,2.224
		c0.167-0.865,0.024-1.779-0.215-2.348l-2.435,1.038c0.262,0.914,0.239,1.754-0.048,3.212l-1.766,8.646h2.578l1.671-8.152
		c1.265-1.705,2.458-2.322,3.318-2.322c0.645,0,0.955,0.271,0.955,0.988c0,0.271-0.048,0.667-0.167,1.21l-1.695,8.276h2.602
		l1.838-8.943C168.592,130.356,168.616,129.838,168.616,129.418L168.616,129.418z"/>
	<path fill-rule="evenodd" clip-rule="evenodd" fill="#00205B" d="M176.721,123.587c0-0.988-0.764-1.804-1.718-1.804
		c-0.979,0-1.767,0.815-1.767,1.828c0,0.988,0.788,1.804,1.743,1.804C175.957,125.415,176.721,124.6,176.721,123.587
		L176.721,123.587z M175.599,126.947l-2.745,0.42l-2.53,12.353h2.673L175.599,126.947L175.599,126.947z"/>
	<path fill="#00205B" d="M188.434,127.243l-2.84-0.024l-3.461,6.571c-0.549,1.038-0.931,1.928-1.217,2.669
		c0,0-0.024,0.024-0.024,0.049c0-0.716-0.048-1.828-0.143-2.644l-0.788-6.917l-2.673,0.42l1.814,12.402h2.292L188.434,127.243
		L188.434,127.243z"/>
	<path fill-rule="evenodd" clip-rule="evenodd" fill="#00205B" d="M198.572,130.258c0-2.224-1.48-3.336-3.819-3.336
		c-1.552,0-2.888,0.52-4.082,1.705c-1.647,1.655-2.697,4.349-2.697,6.844c0,2.965,1.719,4.57,4.296,4.57
		c2.029,0,3.461-0.568,4.917-1.778l-0.812-1.681c-1.122,0.914-2.148,1.359-3.413,1.359c-1.313,0-2.196-0.741-2.196-2.298
		c0-0.396,0.096-1.062,0.144-1.31c0.215,0,0.788,0.099,1.456,0.099c2.482,0,4.129-0.568,5.131-1.581
		C198.19,132.16,198.572,131.271,198.572,130.258L198.572,130.258z M195.922,130.431c0,0.519-0.191,0.914-0.501,1.235
		c-0.573,0.593-1.576,0.815-3.032,0.815c-0.405,0-0.907-0.074-1.05-0.074c0.525-2.348,1.718-3.459,3.079-3.459
		C195.517,128.948,195.922,129.591,195.922,130.431L195.922,130.431z"/>
	<path fill="#00205B" d="M208.879,127.12c-0.358-0.148-0.573-0.198-1.002-0.198c-1.17,0-2.506,0.915-3.604,2.348
		c0.167-0.865,0.072-1.804-0.191-2.446l-2.435,1.038c0.239,0.864,0.263,1.804-0.095,3.508l-1.718,8.351h2.602l1.646-8.029
		c1.05-1.531,1.981-2.198,2.816-2.198c0.358,0,0.597,0.049,0.835,0.197L208.879,127.12L208.879,127.12z"/>
	<path fill="#00205B" d="M218.132,127.861c-0.955-0.618-2.339-1.062-3.771-1.062c-3.533,0-5.275,2.075-5.275,4.249
		c0,1.557,0.835,2.422,2.268,2.99l1.385,0.543c1.098,0.445,1.527,0.84,1.527,1.631c0,1.037-1.002,1.804-2.315,1.804
		c-1.361,0-2.769-0.52-3.771-1.235l-1.05,2.001c1.241,0.815,2.792,1.31,4.463,1.31c3.557,0,5.585-2.101,5.585-4.67
		c0-1.482-0.979-2.371-2.458-2.965l-1.432-0.567c-0.955-0.371-1.289-0.791-1.289-1.458c0-1.038,0.931-1.532,2.196-1.532
		c0.955,0,1.886,0.272,2.888,0.865L218.132,127.861L218.132,127.861z"/>
	<path fill-rule="evenodd" clip-rule="evenodd" fill="#00205B" d="M225.434,123.587c0-0.988-0.764-1.804-1.718-1.804
		c-0.979,0-1.767,0.815-1.767,1.828c0,0.988,0.788,1.804,1.742,1.804C224.67,125.415,225.434,124.6,225.434,123.587L225.434,123.587
		z M224.312,126.947l-2.745,0.42l-2.53,12.353h2.673L224.312,126.947L224.312,126.947z"/>
	<path fill="#00205B" d="M233.399,127.219h-2.888c0.239-1.186,0.645-2.644,0.979-3.706l-2.792,0.667
		c-0.311,0.938-0.549,1.902-0.788,3.039h-1.361l-0.382,1.927h1.36l-1.456,7.116c-0.12,0.617-0.167,1.26-0.167,1.704
		c0,1.26,0.907,2.1,2.53,2.1c0.835,0,1.671-0.173,2.506-0.519v-1.68c-0.381,0.173-0.835,0.247-1.217,0.247
		c-0.764,0-1.122-0.247-1.122-1.038c0-0.321,0.048-0.741,0.143-1.21l1.361-6.721h2.315L233.399,127.219L233.399,127.219z"/>
	<path fill-rule="evenodd" clip-rule="evenodd" fill="#00205B" d="M244.922,124.18c0-0.914-0.716-1.655-1.599-1.655
		c-0.907,0-1.623,0.741-1.623,1.655c0,0.938,0.716,1.681,1.623,1.681C244.206,125.86,244.922,125.118,244.922,124.18L244.922,124.18
		z M239.933,124.18c0-0.914-0.716-1.655-1.599-1.655c-0.883,0-1.623,0.741-1.623,1.655c0,0.938,0.716,1.681,1.599,1.681
		C239.217,125.86,239.933,125.118,239.933,124.18L239.933,124.18z M244.396,127.861c-0.955-0.643-2.363-0.939-3.747-0.939
		c-1.934,0-3.509,0.667-4.797,2.026c-1.552,1.655-2.554,4.323-2.554,7.091c0,2.668,1.265,3.978,3.151,3.978
		c1.551,0,2.769-0.717,3.628-1.927c0,0.814,0.262,1.507,0.907,2.05l2.148-1.655c-0.597-0.667-0.74-1.309-0.429-2.816l0.979-4.941
		C243.848,129.838,244.182,128.553,244.396,127.861L244.396,127.861z M241.461,129.318l-1.289,6.128
		c-0.549,1.26-1.766,2.396-2.864,2.396c-0.883,0-1.312-0.52-1.312-1.878c0-1.754,0.501-4.176,1.575-5.51
		c0.931-1.137,1.695-1.384,2.769-1.384C240.745,129.071,241.222,129.171,241.461,129.318L241.461,129.318z"/>
	<path fill="#00205B" d="M253.56,127.219h-2.888c0.238-1.186,0.644-2.644,0.979-3.706l-2.792,0.667
		c-0.311,0.938-0.549,1.902-0.788,3.039h-1.36l-0.382,1.927h1.36l-1.456,7.116c-0.119,0.617-0.167,1.26-0.167,1.704
		c0,1.26,0.907,2.1,2.53,2.1c0.836,0,1.671-0.173,2.506-0.519v-1.68c-0.382,0.173-0.835,0.247-1.217,0.247
		c-0.764,0-1.122-0.247-1.122-1.038c0-0.321,0.048-0.741,0.143-1.21l1.36-6.721h2.315L253.56,127.219L253.56,127.219z"/>
	<path fill-rule="evenodd" clip-rule="evenodd" fill="#00205B" d="M271.831,121.981l-2.506-0.445l-0.859,4.2
		c-0.096,0.42-0.31,1.557-0.31,1.68c-0.406-0.222-1.241-0.395-2.315-0.395c-1.384,0-2.888,0.593-4.034,1.754
		c-1.695,1.729-2.649,4.397-2.649,6.893c0,2.816,1.146,4.299,3.557,4.299c1.384,0,2.625-0.642,3.556-1.828
		c-0.048,0.791,0.143,1.408,0.454,1.804l2.243-0.544c-0.334-0.593-0.429-1.383,0.12-4.026L271.831,121.981L271.831,121.981z
		 M267.63,129.714l-1.217,5.855c-0.74,1.31-2.053,2.224-3.055,2.224c-0.979,0-1.456-0.717-1.456-2.075
		c0-1.705,0.668-4.126,1.646-5.361c0.573-0.741,1.432-1.137,2.196-1.137C266.628,129.22,267.129,129.368,267.63,129.714
		L267.63,129.714z"/>
	<path fill-rule="evenodd" clip-rule="evenodd" fill="#00205B" d="M282.953,130.258c0-2.224-1.48-3.336-3.82-3.336
		c-1.551,0-2.887,0.52-4.081,1.705c-1.647,1.655-2.697,4.349-2.697,6.844c0,2.965,1.719,4.57,4.296,4.57
		c2.028,0,3.46-0.568,4.917-1.778l-0.812-1.681c-1.121,0.914-2.146,1.359-3.413,1.359c-1.312,0-2.196-0.741-2.196-2.298
		c0-0.396,0.096-1.062,0.144-1.31c0.214,0,0.788,0.099,1.456,0.099c2.482,0,4.128-0.568,5.132-1.581
		C282.57,132.16,282.953,131.271,282.953,130.258L282.953,130.258z M280.303,130.431c0,0.519-0.191,0.914-0.5,1.235
		c-0.574,0.593-1.576,0.815-3.032,0.815c-0.406,0-0.907-0.074-1.05-0.074c0.525-2.348,1.719-3.459,3.079-3.459
		C279.896,128.948,280.303,129.591,280.303,130.431L280.303,130.431z"/>
	<path fill="#00205B" d="M293.26,127.12c-0.357-0.148-0.572-0.198-1.002-0.198c-1.17,0-2.506,0.915-3.604,2.348
		c0.166-0.865,0.07-1.804-0.191-2.446l-2.436,1.038c0.238,0.864,0.264,1.804-0.096,3.508l-1.719,8.351h2.604l1.646-8.029
		c1.049-1.531,1.98-2.198,2.816-2.198c0.357,0,0.596,0.049,0.836,0.197L293.26,127.12L293.26,127.12z"/>
	<polygon fill="#00205B" points="304.369,122.648 301.6,122.648 298.068,139.72 300.859,139.72 304.369,122.648 	"/>
	<path fill="#00205B" d="M316.084,129.418c0-1.508-0.908-2.471-2.412-2.471c-1.67,0-3.197,0.79-4.344,2.224
		c0.168-0.865,0.025-1.779-0.215-2.348l-2.434,1.038c0.262,0.914,0.238,1.754-0.049,3.212l-1.766,8.646h2.578l1.67-8.152
		c1.266-1.705,2.459-2.322,3.318-2.322c0.645,0,0.955,0.271,0.955,0.988c0,0.271-0.049,0.667-0.168,1.21l-1.693,8.276h2.602
		l1.838-8.943C316.059,130.356,316.084,129.838,316.084,129.418L316.084,129.418z"/>
	<path fill="#00205B" d="M327.889,122.302c-0.621-0.42-1.529-0.716-2.555-0.716c-0.932,0-1.742,0.173-2.41,0.593
		c-1.027,0.643-1.791,1.68-2.078,3.335l-0.285,1.705h-1.146l-0.381,1.927h1.193l-2.029,10.648c-0.311,1.606-1.025,3.015-1.719,3.879
		l1.766,1.408c1.1-1.161,2.102-2.891,2.531-5.213l2.029-10.723h2.41l1.098-1.927h-3.174l0.334-1.853
		c0.191-1.112,0.906-1.755,1.838-1.755c0.5,0,1.002,0.173,1.479,0.47L327.889,122.302L327.889,122.302z"/>
	<path fill-rule="evenodd" clip-rule="evenodd" fill="#00205B" d="M336.354,131.32c0-2.743-1.504-4.398-4.273-4.398
		c-4.01,0-6.85,3.805-6.85,8.623c0,2.865,1.527,4.472,4.201,4.472C333.871,140.017,336.354,135.891,336.354,131.32L336.354,131.32z
		 M333.512,131.221c0,3.039-1.264,6.745-3.604,6.745c-1.17,0-1.861-0.667-1.861-2.174c0-2.842,1.24-6.795,3.627-6.795
		C332.748,128.997,333.512,129.541,333.512,131.221L333.512,131.221z"/>
	<path fill="#00205B" d="M346.918,127.12c-0.357-0.148-0.572-0.198-1.002-0.198c-1.17,0-2.506,0.915-3.605,2.348
		c0.168-0.865,0.072-1.804-0.189-2.446l-2.436,1.038c0.238,0.864,0.264,1.804-0.096,3.508l-1.717,8.351h2.602l1.646-8.029
		c1.049-1.531,1.98-2.198,2.816-2.198c0.357,0,0.596,0.049,0.834,0.197L346.918,127.12L346.918,127.12z"/>
	<path fill="#00205B" d="M363.309,129.442c0-1.581-0.955-2.521-2.34-2.521c-1.266,0-2.721,0.618-4.178,2.224
		c-0.07-1.457-0.811-2.198-2.148-2.198c-1.289,0-2.721,0.642-4.129,2.198c0.145-0.79,0.049-1.754-0.189-2.322l-2.436,1.038
		c0.215,0.79,0.238,1.828-0.023,3.138l-1.791,8.721h2.531l1.67-8.152c1.098-1.482,2.316-2.322,3.174-2.322
		c0.645,0,0.859,0.296,0.859,0.84c0,0.271-0.094,0.79-0.215,1.334l-1.693,8.301h2.529l1.695-8.178
		c0.953-1.358,2.172-2.297,3.055-2.297c0.668,0,0.955,0.271,0.955,0.889c0,0.297-0.049,0.692-0.145,1.137l-1.742,8.449h2.578
		l1.791-8.721C363.213,130.479,363.309,129.887,363.309,129.442L363.309,129.442z"/>
	<path fill-rule="evenodd" clip-rule="evenodd" fill="#00205B" d="M376.07,127.861c-0.955-0.643-2.363-0.939-3.746-0.939
		c-1.934,0-3.51,0.667-4.799,2.026c-1.551,1.655-2.553,4.323-2.553,7.091c0,2.668,1.264,3.978,3.15,3.978
		c1.551,0,2.768-0.717,3.627-1.927c0,0.814,0.264,1.507,0.908,2.05l2.148-1.655c-0.598-0.667-0.74-1.309-0.43-2.816l0.979-4.941
		C375.521,129.838,375.855,128.553,376.07,127.861L376.07,127.861z M373.135,129.318l-1.289,6.128
		c-0.549,1.26-1.766,2.396-2.863,2.396c-0.883,0-1.312-0.52-1.312-1.878c0-1.754,0.5-4.176,1.574-5.51
		c0.932-1.137,1.695-1.384,2.77-1.384C372.42,129.071,372.896,129.171,373.135,129.318L373.135,129.318z"/>
	<path fill="#00205B" d="M385.234,127.219h-2.889c0.24-1.186,0.645-2.644,0.979-3.706l-2.791,0.667
		c-0.311,0.938-0.549,1.902-0.789,3.039h-1.359l-0.383,1.927h1.361l-1.457,7.116c-0.119,0.617-0.166,1.26-0.166,1.704
		c0,1.26,0.906,2.1,2.529,2.1c0.836,0,1.672-0.173,2.506-0.519v-1.68c-0.381,0.173-0.834,0.247-1.217,0.247
		c-0.764,0-1.121-0.247-1.121-1.038c0-0.321,0.047-0.741,0.143-1.21l1.361-6.721h2.314L385.234,127.219L385.234,127.219z"/>
	<path fill-rule="evenodd" clip-rule="evenodd" fill="#00205B" d="M391.48,123.587c0-0.988-0.762-1.804-1.717-1.804
		c-0.979,0-1.768,0.815-1.768,1.828c0,0.988,0.789,1.804,1.742,1.804C390.719,125.415,391.48,124.6,391.48,123.587L391.48,123.587z
		 M390.359,126.947l-2.744,0.42l-2.531,12.353h2.674L390.359,126.947L390.359,126.947z"/>
	<path fill-rule="evenodd" clip-rule="evenodd" fill="#00205B" d="M402.766,131.32c0-2.743-1.504-4.398-4.273-4.398
		c-4.01,0-6.85,3.805-6.85,8.623c0,2.865,1.527,4.472,4.201,4.472C400.283,140.017,402.766,135.891,402.766,131.32L402.766,131.32z
		 M399.924,131.221c0,3.039-1.264,6.745-3.604,6.745c-1.17,0-1.861-0.667-1.861-2.174c0-2.842,1.24-6.795,3.629-6.795
		C399.162,128.997,399.924,129.541,399.924,131.221L399.924,131.221z"/>
	<path fill="#00205B" d="M415.502,129.418c0-1.508-0.906-2.471-2.41-2.471c-1.67,0-3.197,0.79-4.344,2.224
		c0.168-0.865,0.023-1.779-0.215-2.348l-2.436,1.038c0.264,0.914,0.24,1.754-0.047,3.212l-1.766,8.646h2.576l1.672-8.152
		c1.266-1.705,2.459-2.322,3.318-2.322c0.645,0,0.953,0.271,0.953,0.988c0,0.271-0.047,0.667-0.166,1.21l-1.695,8.276h2.602
		l1.838-8.943C415.479,130.356,415.502,129.838,415.502,129.418L415.502,129.418z"/>
	<path fill="#00205B" d="M427.355,127.861c-0.955-0.618-2.34-1.062-3.771-1.062c-3.533,0-5.275,2.075-5.275,4.249
		c0,1.557,0.836,2.422,2.268,2.99l1.385,0.543c1.098,0.445,1.527,0.84,1.527,1.631c0,1.037-1.002,1.804-2.314,1.804
		c-1.361,0-2.77-0.52-3.771-1.235l-1.051,2.001c1.242,0.815,2.793,1.31,4.463,1.31c3.557,0,5.586-2.101,5.586-4.67
		c0-1.482-0.979-2.371-2.459-2.965l-1.432-0.567c-0.955-0.371-1.289-0.791-1.289-1.458c0-1.038,0.932-1.532,2.195-1.532
		c0.955,0,1.887,0.272,2.889,0.865L427.355,127.861L427.355,127.861z"/>
	<path fill-rule="evenodd" clip-rule="evenodd" fill="#00205B" d="M440.217,127.861c-1.312-0.692-2.506-0.964-4.463-0.964
		c-1.789,0-3.293,0.691-4.512,1.828c-1.67,1.557-2.695,4.447-2.695,7.017c0,2.816,1.168,4.25,3.555,4.25
		c1.289,0,2.387-0.445,3.318-1.508c-0.072,0.223-0.357,1.557-0.43,1.829c-0.453,1.754-1.48,2.544-3.508,2.544
		c-1.385,0-2.508-0.296-3.533-0.938l-0.906,1.927c1.264,0.741,2.672,1.112,4.225,1.112c3.127,0,5.584-1.137,6.348-4.645
		c0.215-0.939,0.383-2.348,0.789-4.25l1.264-6.103C439.836,129.171,440.146,128.083,440.217,127.861L440.217,127.861z
		 M437.162,129.467l-1.289,6.152c-0.74,1.334-1.908,2.224-2.982,2.224c-1.004,0-1.576-0.717-1.576-2.175
		c0-1.68,0.74-4.2,1.742-5.386c0.621-0.741,1.646-1.161,2.482-1.161C436.232,129.121,436.781,129.22,437.162,129.467
		L437.162,129.467z"/>
	<path fill-rule="evenodd" clip-rule="evenodd" fill="#00205B" d="M452.389,130.258c0-2.224-1.48-3.336-3.818-3.336
		c-1.551,0-2.889,0.52-4.082,1.705c-1.646,1.655-2.697,4.349-2.697,6.844c0,2.965,1.719,4.57,4.297,4.57
		c2.029,0,3.461-0.568,4.916-1.778l-0.811-1.681c-1.121,0.914-2.148,1.359-3.414,1.359c-1.312,0-2.195-0.741-2.195-2.298
		c0-0.396,0.096-1.062,0.143-1.31c0.215,0,0.789,0.099,1.457,0.099c2.482,0,4.129-0.568,5.131-1.581
		C452.008,132.16,452.389,131.271,452.389,130.258L452.389,130.258z M449.74,130.431c0,0.519-0.191,0.914-0.502,1.235
		c-0.572,0.593-1.576,0.815-3.031,0.815c-0.406,0-0.906-0.074-1.051-0.074c0.525-2.348,1.719-3.459,3.08-3.459
		C449.334,128.948,449.74,129.591,449.74,130.431L449.74,130.431z"/>
	<path fill="#00205B" d="M463.771,127.861c-0.955-0.618-2.34-1.062-3.771-1.062c-3.533,0-5.275,2.075-5.275,4.249
		c0,1.557,0.836,2.422,2.268,2.99l1.385,0.543c1.098,0.445,1.527,0.84,1.527,1.631c0,1.037-1.004,1.804-2.316,1.804
		c-1.359,0-2.768-0.52-3.77-1.235l-1.051,2.001c1.24,0.815,2.793,1.31,4.463,1.31c3.557,0,5.586-2.101,5.586-4.67
		c0-1.482-0.979-2.371-2.459-2.965l-1.432-0.567c-0.955-0.371-1.289-0.791-1.289-1.458c0-1.038,0.93-1.532,2.195-1.532
		c0.955,0,1.885,0.272,2.889,0.865L463.771,127.861L463.771,127.861z"/>
	<path fill-rule="evenodd" clip-rule="evenodd" fill="#00205B" d="M475.559,130.258c0-2.224-1.479-3.336-3.818-3.336
		c-1.551,0-2.889,0.52-4.082,1.705c-1.646,1.655-2.697,4.349-2.697,6.844c0,2.965,1.719,4.57,4.297,4.57
		c2.029,0,3.461-0.568,4.916-1.778l-0.811-1.681c-1.123,0.914-2.148,1.359-3.414,1.359c-1.312,0-2.195-0.741-2.195-2.298
		c0-0.396,0.096-1.062,0.143-1.31c0.215,0,0.789,0.099,1.457,0.099c2.482,0,4.129-0.568,5.131-1.581
		C475.178,132.16,475.559,131.271,475.559,130.258L475.559,130.258z M472.91,130.431c0,0.519-0.191,0.914-0.502,1.235
		c-0.572,0.593-1.574,0.815-3.031,0.815c-0.406,0-0.906-0.074-1.051-0.074c0.525-2.348,1.719-3.459,3.08-3.459
		C472.504,128.948,472.91,129.591,472.91,130.431L472.91,130.431z"/>
	<path fill="#00205B" d="M482.5,121.388l-2.768,0.939c0.238,0.815,0.143,2.025-0.191,3.681l-2.123,10.303
		c-0.145,0.692-0.24,1.384-0.24,1.754c0,1.161,0.717,1.928,2.102,1.928c0.619,0,1.217-0.1,1.766-0.321l-0.143-1.655
		c-0.119,0.049-0.264,0.049-0.406,0.049c-0.381,0-0.572-0.222-0.572-0.667c0-0.296,0.07-0.766,0.285-1.754l2.078-10.08
		C482.621,124.007,482.691,122.154,482.5,121.388L482.5,121.388z"/>
	<path fill="#00205B" d="M489.225,121.388l-2.77,0.939c0.24,0.815,0.145,2.025-0.189,3.681l-2.125,10.303
		c-0.143,0.692-0.238,1.384-0.238,1.754c0,1.161,0.715,1.928,2.1,1.928c0.621,0,1.217-0.1,1.766-0.321l-0.143-1.655
		c-0.119,0.049-0.262,0.049-0.406,0.049c-0.381,0-0.572-0.222-0.572-0.667c0-0.296,0.072-0.766,0.287-1.754l2.076-10.08
		C489.344,124.007,489.416,122.154,489.225,121.388L489.225,121.388z"/>
	<path fill="#00205B" d="M500.387,127.861c-0.953-0.618-2.338-1.062-3.771-1.062c-3.531,0-5.273,2.075-5.273,4.249
		c0,1.557,0.836,2.422,2.268,2.99l1.383,0.543c1.1,0.445,1.529,0.84,1.529,1.631c0,1.037-1.004,1.804-2.316,1.804
		c-1.359,0-2.768-0.52-3.771-1.235l-1.049,2.001c1.24,0.815,2.793,1.31,4.463,1.31c3.557,0,5.586-2.101,5.586-4.67
		c0-1.482-0.979-2.371-2.459-2.965l-1.432-0.567c-0.955-0.371-1.289-0.791-1.289-1.458c0-1.038,0.93-1.532,2.195-1.532
		c0.955,0,1.885,0.272,2.889,0.865L500.387,127.861L500.387,127.861z"/>
	<path fill="#00205B" d="M511.508,128.183c-0.836-0.89-1.934-1.31-3.08-1.31c-1.527,0-2.721,0.494-3.818,1.457
		c-1.646,1.434-3.078,4.423-3.078,7.412c0,2.718,1.359,4.274,4.057,4.274c1.646,0,2.936-0.544,4.273-1.655l-0.955-1.705
		c-0.883,0.815-1.838,1.31-2.746,1.31c-1.145,0-1.789-0.741-1.789-2.224c0-1.927,0.811-4.546,1.67-5.633
		c0.525-0.643,1.242-1.013,1.959-1.013c0.715,0,1.455,0.271,2.076,0.914L511.508,128.183L511.508,128.183z"/>
	<path fill="#00205B" d="M523.385,129.344c0-1.458-0.93-2.446-2.695-2.446c-1.457,0-3.127,0.766-4.273,2.174
		c0.143-0.444,0.383-1.433,0.477-1.877l0.359-1.729c0.334-1.581,0.43-3.311,0.191-4.077l-2.674,0.939
		c0.191,0.79,0.166,1.853-0.215,3.656l-2.816,13.736h2.602l1.67-8.152c1.027-1.359,2.555-2.372,3.533-2.372
		c0.715,0,1.098,0.346,1.121,1.062c0,0.247-0.07,0.643-0.143,1.037l-1.719,8.425h2.578l1.814-8.845
		C523.338,130.208,523.385,129.738,523.385,129.344L523.385,129.344z"/>
	<path fill-rule="evenodd" clip-rule="evenodd" fill="#00205B" d="M536.027,127.861c-0.953-0.643-2.363-0.939-3.746-0.939
		c-1.934,0-3.51,0.667-4.799,2.026c-1.551,1.655-2.553,4.323-2.553,7.091c0,2.668,1.264,3.978,3.15,3.978
		c1.551,0,2.768-0.717,3.627-1.927c0,0.814,0.264,1.507,0.908,2.05l2.148-1.655c-0.598-0.667-0.74-1.309-0.43-2.816l0.979-4.941
		C535.479,129.838,535.812,128.553,536.027,127.861L536.027,127.861z M533.092,129.318l-1.289,6.128
		c-0.549,1.26-1.766,2.396-2.863,2.396c-0.883,0-1.312-0.52-1.312-1.878c0-1.754,0.5-4.176,1.574-5.51
		c0.932-1.137,1.695-1.384,2.77-1.384C532.375,129.071,532.854,129.171,533.092,129.318L533.092,129.318z"/>
	<path fill="#00205B" d="M547.244,122.302c-0.621-0.42-1.527-0.716-2.555-0.716c-0.93,0-1.742,0.173-2.41,0.593
		c-1.025,0.643-1.789,1.68-2.076,3.335l-0.287,1.705h-1.145l-0.383,1.927h1.193l-2.027,10.648c-0.311,1.606-1.027,3.015-1.719,3.879
		l1.766,1.408c1.098-1.161,2.1-2.891,2.529-5.213l2.029-10.723h2.41l1.098-1.927h-3.174l0.334-1.853
		c0.191-1.112,0.908-1.755,1.838-1.755c0.502,0,1.002,0.173,1.48,0.47L547.244,122.302L547.244,122.302z"/>
	<path fill="#00205B" d="M552.391,127.219h-2.887c0.238-1.186,0.645-2.644,0.979-3.706l-2.793,0.667
		c-0.311,0.938-0.549,1.902-0.787,3.039h-1.361l-0.381,1.927h1.359l-1.455,7.116c-0.121,0.617-0.168,1.26-0.168,1.704
		c0,1.26,0.908,2.1,2.529,2.1c0.836,0,1.672-0.173,2.508-0.519v-1.68c-0.383,0.173-0.836,0.247-1.219,0.247
		c-0.764,0-1.121-0.247-1.121-1.038c0-0.321,0.049-0.741,0.143-1.21l1.361-6.721h2.314L552.391,127.219L552.391,127.219z"/>
	<polygon fill="#00205B" points="63.251,0 46.323,13.267 46.323,74.836 83.245,109.098 63.251,62.924 63.251,0 	"/>
	<polygon fill="#00205B" points="85.424,46.34 69.784,33.774 69.784,58.253 85.424,108.36 85.424,46.34 	"/>
	<polygon fill="#00205B" points="39.791,33.121 23.46,46.34 23.46,93.335 81.758,110.607 39.791,80.115 39.791,33.121 	"/>
	<polygon fill="#00205B" points="81.333,112.534 0,112.534 0,79.461 16.975,66.194 16.975,99.314 81.333,112.534 	"/>
</g>
</svg>
