<?xml version="1.0" encoding="utf-8"?>
<!-- Generator: Adobe Illustrator 16.0.0, SVG Export Plug-In . SVG Version: 6.00 Build 0)  -->
<!DOCTYPE svg PUBLIC "-//W3C//DTD SVG 1.1//EN" "http://www.w3.org/Graphics/SVG/1.1/DTD/svg11.dtd">
<svg version="1.1" xmlns="http://www.w3.org/2000/svg" xmlns:xlink="http://www.w3.org/1999/xlink" x="0px" y="0px"
	 width="248.655px" height="56.81px" viewBox="0 0 248.655 56.81" enable-background="new 0 0 248.655 56.81" xml:space="preserve">
<g id="Ebene_1">
	<linearGradient id="SVGID_1_" gradientUnits="userSpaceOnUse" x1="506.0786" y1="-50.3066" x2="-254.5937" y2="-489.4808">
		<stop  offset="0" style="stop-color:#E63947"/>
		<stop  offset="0.0239" style="stop-color:#E9635F"/>
		<stop  offset="0.0585" style="stop-color:#EC9082"/>
		<stop  offset="0.094" style="stop-color:#EFB3A3"/>
		<stop  offset="0.1298" style="stop-color:#F0CEBE"/>
		<stop  offset="0.166" style="stop-color:#F1E0D3"/>
		<stop  offset="0.2029" style="stop-color:#F1EDE1"/>
		<stop  offset="0.2407" style="stop-color:#F1F5EA"/>
		<stop  offset="0.2809" style="stop-color:#F1F7ED"/>
		<stop  offset="0.6685" style="stop-color:#A8D9DB"/>
		<stop  offset="0.8876" style="stop-color:#467B9D"/>
		<stop  offset="1" style="stop-color:#1D3557"/>
	</linearGradient>
	<rect x="-295.203" y="-419.145" display="none" fill="url(#SVGID_1_)" width="841.89" height="298.5"/>
	<rect x="-295.203" y="-121.144" display="none" fill="#FFFFFF" width="841.946" height="297.478"/>
	<linearGradient id="SVGID_2_" gradientUnits="userSpaceOnUse" x1="506.0786" y1="-50.3066" x2="-254.5937" y2="-489.4808">
		<stop  offset="0" style="stop-color:#E63947"/>
		<stop  offset="0" style="stop-color:#E9635F"/>
		<stop  offset="0" style="stop-color:#EC9082"/>
		<stop  offset="0" style="stop-color:#EFB3A3"/>
		<stop  offset="0" style="stop-color:#F0CEBE"/>
		<stop  offset="0" style="stop-color:#F1E0D3"/>
		<stop  offset="0" style="stop-color:#F1EDE1"/>
		<stop  offset="0" style="stop-color:#F1F5EA"/>
		<stop  offset="0" style="stop-color:#F1F7ED"/>
		<stop  offset="0" style="stop-color:#A8D9DB"/>
		<stop  offset="0.5" style="stop-color:#467B9D"/>
		<stop  offset="1" style="stop-color:#1D3557"/>
	</linearGradient>
	<rect x="-295.203" y="-419.145" fill="url(#SVGID_2_)" width="841.89" height="298.5"/>
</g>
<g id="Ebene_3">
	<g display="none">
		<path display="inline" fill="#1B1B37" d="M118.851,20.4c0-0.586,0.232-1.08,0.699-1.48c0.467-0.399,0.98-0.6,1.541-0.6
			c0.559,0,1.059,0.2,1.5,0.6c0.439,0.4,0.659,0.895,0.659,1.48c0,0.613-0.22,1.113-0.659,1.5c-0.441,0.387-0.941,0.58-1.5,0.58
			c-0.561,0-1.074-0.2-1.541-0.6C119.083,21.48,118.851,20.987,118.851,20.4z M119.13,26.4h3.721v16.561h-3.721V26.4z"/>
		<path display="inline" fill="#1B1B37" d="M127.33,42.961L139.97,12.84h0.24l12.6,30.121h-4.439l-9.44-24.041l2.761-1.799
			l-10.561,25.84H127.33z M134.73,32h10.76l1.281,3.36h-13.16L134.73,32z"/>
		<path display="inline" fill="#1B1B37" d="M165.93,14.041c1.466,0,2.82,0.193,4.06,0.58c1.24,0.387,2.32,0.959,3.24,1.719
			c0.92,0.761,1.641,1.694,2.16,2.801c0.52,1.107,0.78,2.394,0.78,3.859c0,1.147-0.167,2.268-0.5,3.36
			c-0.334,1.094-0.887,2.087-1.66,2.979c-0.773,0.895-1.78,1.614-3.021,2.16c-1.239,0.547-2.766,0.82-4.58,0.82h-4.279v10.641h-3.88
			v-28.92H165.93z M166.331,28.601c1.146,0,2.1-0.173,2.86-0.521c0.76-0.346,1.353-0.793,1.779-1.34
			c0.426-0.546,0.733-1.14,0.92-1.779c0.187-0.641,0.28-1.24,0.28-1.801c0-0.586-0.101-1.193-0.3-1.82
			c-0.2-0.625-0.521-1.205-0.961-1.739c-0.439-0.533-1.014-0.974-1.719-1.32c-0.707-0.347-1.567-0.521-2.58-0.521h-4.48v10.841
			H166.331z M171.09,30.801l7.56,12.16h-4.479L166.49,30.92L171.09,30.801z"/>
		<path display="inline" fill="#1B1B37" d="M182.09,14.041h19.2v3.719h-7.76v25.201h-3.88V17.76h-7.561V14.041z"/>
	</g>
	<g display="none">
		<g display="inline">
			<g>
				<path fill="#1B1B37" d="M107.536,4.267c-8.787,5.032-17.574,10.064-26.361,15.097c-0.305,0.175-0.495,0.514-0.495,0.863
					c0,9.944,0,19.89,0,29.834c0,1.29,2,1.29,2,0c0-9.944,0-19.89,0-29.834c0-0.351-0.19-0.688-0.495-0.863
					C73.413,14.331,64.641,9.299,55.869,4.267c-1.121-0.644-2.128,1.085-1.01,1.727c8.76,5.025,17.519,10.051,26.279,15.076
					c-0.73-0.419-0.458-1.171-0.458,0.181c0,1.15,0,2.302,0,3.453c0,3.314,0,6.629,0,9.943c0,5.138,0,10.276,0,15.414
					c0,1.29,2,1.29,2,0c0-4.807,0-9.613,0-14.42c0-3.394,0-6.787,0-10.181c0-1.262,0-2.522,0-3.784c0-1.578,0.371-1.082-0.458-0.606
					c8.775-5.025,17.549-10.051,26.324-15.076C109.664,5.353,108.657,3.624,107.536,4.267L107.536,4.267z"/>
			</g>
		</g>
		<g display="inline">
			<g>
				<path fill="#1B1B37" d="M82.543,34.804c4.06-7.003,8.12-14.005,12.18-21.008c0.38-0.656-0.103-1.505-0.863-1.505
					c-8.118,0-16.235,0-24.353,0c-0.76,0-1.244,0.849-0.863,1.505c4.058,7.003,8.115,14.005,12.173,21.008
					c0.646,1.115,2.375,0.108,1.727-1.01c-4.058-7.003-8.115-14.005-12.173-21.008c-0.288,0.502-0.576,1.003-0.863,1.505
					c8.118,0,16.235,0,24.353,0c-0.288-0.502-0.576-1.003-0.863-1.505c-4.06,7.003-8.12,14.005-12.18,21.008
					C80.168,34.912,81.897,35.919,82.543,34.804L82.543,34.804z"/>
			</g>
		</g>
		<g display="inline">
			<g>
				<path fill="#1B1B37" d="M82.543,43.808c6.687-11.534,13.374-23.069,20.061-34.604c0.38-0.656-0.103-1.505-0.863-1.505
					c-13.375,0-26.75,0-40.126,0c-0.76,0-1.244,0.849-0.863,1.505c6.688,11.534,13.377,23.069,20.065,34.604
					c0.646,1.115,2.375,0.108,1.727-1.01C75.854,31.264,69.166,19.729,62.478,8.194c-0.288,0.502-0.576,1.003-0.863,1.505
					c13.375,0,26.75,0,40.126,0c-0.288-0.502-0.576-1.003-0.863-1.505C94.19,19.729,87.503,31.264,80.816,42.798
					C80.168,43.916,81.897,44.923,82.543,43.808L82.543,43.808z"/>
			</g>
		</g>
		<g display="inline">
			<g>
				<path fill="#1B1B37" d="M108.041,0.248c1.96,0,3.92,0,5.881,0c-0.333-0.333-0.667-0.667-1-1c0,1.961,0,3.921,0,5.882
					c0.333-0.333,0.667-0.667,1-1c-1.96,0-3.92,0-5.881,0c0.333,0.333,0.667,0.667,1,1c0-1.961,0-3.921,0-5.882c0-1.29-2-1.29-2,0
					c0,1.961,0,3.921,0,5.882c0,0.545,0.455,1,1,1c1.96,0,3.92,0,5.881,0c0.545,0,1-0.455,1-1c0-1.961,0-3.921,0-5.882
					c0-0.545-0.455-1-1-1c-1.96,0-3.92,0-5.881,0C106.751-1.752,106.751,0.248,108.041,0.248z"/>
			</g>
		</g>
		<g display="inline">
			<g>
				<path fill="#1B1B37" d="M49.486,0.248c1.959,0,3.918,0,5.878,0c-0.333-0.333-0.667-0.667-1-1c0,1.961,0,3.921,0,5.882
					c0.333-0.333,0.667-0.667,1-1c-1.959,0-3.918,0-5.878,0c0.333,0.333,0.667,0.667,1,1c0-1.961,0-3.921,0-5.882c0-1.29-2-1.29-2,0
					c0,1.961,0,3.921,0,5.882c0,0.545,0.455,1,1,1c1.959,0,3.918,0,5.878,0c0.545,0,1-0.455,1-1c0-1.961,0-3.921,0-5.882
					c0-0.545-0.455-1-1-1c-1.959,0-3.918,0-5.878,0C48.197-1.752,48.197,0.248,49.486,0.248z"/>
			</g>
		</g>
		<g display="inline">
			<g>
				<path fill="#1B1B37" d="M78.76,51.061c1.961,0,3.922,0,5.884,0c-0.333-0.333-0.667-0.667-1-1c0,1.96,0,3.921,0,5.881
					c0.333-0.333,0.667-0.667,1-1c-1.961,0-3.922,0-5.884,0c0.333,0.333,0.667,0.667,1,1c0-1.96,0-3.921,0-5.881c0-1.29-2-1.29-2,0
					c0,1.96,0,3.921,0,5.881c0,0.545,0.455,1,1,1c1.961,0,3.922,0,5.884,0c0.545,0,1-0.455,1-1c0-1.96,0-3.921,0-5.881
					c0-0.545-0.455-1-1-1c-1.961,0-3.922,0-5.884,0C77.47,49.061,77.47,51.061,78.76,51.061z"/>
			</g>
		</g>
	</g>
	<g display="none">
		<g display="inline">
			<g>
				<path fill="#1B1B37" d="M62.639-35.854c6.687-3.842,13.374-7.685,20.061-11.527c0.305-0.175,0.495-0.513,0.495-0.863
					c0-7.692,0-15.384,0-23.076c0-1.29-2-1.29-2,0c0,7.692,0,15.384,0,23.076c0,0.351,0.19,0.688,0.495,0.863
					c6.688,3.843,13.377,7.686,20.065,11.527c1.121,0.644,2.127-1.085,1.01-1.727c-6.672-3.833-13.345-7.667-20.018-11.5
					c0.67,0.385,0.447,1.2,0.447,0.001c0-0.744,0-1.487,0-2.23c0-2.659,0-5.319,0-7.979c0-4.011,0-8.021,0-12.032c0-1.29-2-1.29-2,0
					c0,7.674,0,15.348,0,23.021c0-0.781,0.806-0.986-0.231-0.391c-0.646,0.371-1.292,0.743-1.939,1.114
					c-2.312,1.328-4.624,2.657-6.936,3.985c-3.486,2.004-6.973,4.007-10.46,6.011C60.511-36.939,61.518-35.211,62.639-35.854
					L62.639-35.854z"/>
			</g>
		</g>
		<g display="inline">
			<g>
				<path fill="#1B1B37" d="M81.331-62.822c-4.06,7.003-8.12,14.005-12.18,21.008c-0.38,0.656,0.103,1.505,0.863,1.505
					c8.118,0,16.235,0,24.353,0c0.76,0,1.244-0.849,0.863-1.505c-4.058-7.003-8.115-14.005-12.173-21.008
					c-0.646-1.115-2.375-0.108-1.727,1.01c4.058,7.003,8.115,14.005,12.173,21.008c0.288-0.502,0.576-1.003,0.863-1.505
					c-8.118,0-16.235,0-24.353,0c0.288,0.502,0.576,1.003,0.863,1.505c4.06-7.003,8.12-14.005,12.18-21.008
					C83.706-62.931,81.977-63.938,81.331-62.822L81.331-62.822z"/>
			</g>
		</g>
		<g display="inline">
			<g>
				<path fill="#1B1B37" d="M81.331-71.826c-6.687,11.534-13.374,23.069-20.061,34.604c-0.38,0.656,0.103,1.505,0.863,1.505
					c13.375,0,26.75,0,40.126,0c0.76,0,1.244-0.849,0.863-1.505c-6.688-11.534-13.377-23.069-20.065-34.604
					c-0.646-1.115-2.375-0.108-1.727,1.01c6.688,11.534,13.377,23.069,20.065,34.604c0.288-0.502,0.576-1.003,0.863-1.505
					c-13.375,0-26.75,0-40.126,0c0.288,0.502,0.576,1.003,0.863,1.505c6.687-11.534,13.374-23.069,20.061-34.604
					C83.706-71.935,81.977-72.941,81.331-71.826L81.331-71.826z"/>
			</g>
		</g>
		<g display="inline">
			<g>
				<path fill="#1B1B37" d="M62.134-31.836c-1.96,0-3.92,0-5.881,0c0.333,0.333,0.667,0.667,1,1c0-1.961,0-3.921,0-5.882
					c-0.333,0.333-0.667,0.667-1,1c1.96,0,3.92,0,5.881,0c-0.333-0.333-0.667-0.667-1-1c0,1.961,0,3.921,0,5.882c0,1.29,2,1.29,2,0
					c0-1.961,0-3.921,0-5.882c0-0.545-0.455-1-1-1c-1.96,0-3.92,0-5.881,0c-0.545,0-1,0.455-1,1c0,1.961,0,3.921,0,5.882
					c0,0.545,0.455,1,1,1c1.96,0,3.92,0,5.881,0C63.423-29.836,63.423-31.836,62.134-31.836z"/>
			</g>
		</g>
		<g display="inline">
			<g>
				<path fill="#1B1B37" d="M108.51-31.836c-1.959,0-3.918,0-5.878,0c0.333,0.333,0.667,0.667,1,1c0-1.961,0-3.921,0-5.882
					c-0.333,0.333-0.667,0.667-1,1c1.959,0,3.918,0,5.878,0c-0.333-0.333-0.667-0.667-1-1c0,1.961,0,3.921,0,5.882
					c0,1.29,2,1.29,2,0c0-1.961,0-3.921,0-5.882c0-0.545-0.455-1-1-1c-1.959,0-3.918,0-5.878,0c-0.545,0-1,0.455-1,1
					c0,1.961,0,3.921,0,5.882c0,0.545,0.455,1,1,1c1.959,0,3.918,0,5.878,0C109.799-29.836,109.799-31.836,108.51-31.836z"/>
			</g>
		</g>
		<g display="inline">
			<g>
				<path fill="#1B1B37" d="M85.114-72.321c-1.961,0-3.922,0-5.884,0c0.333,0.333,0.667,0.667,1,1c0-1.96,0-3.921,0-5.881
					c-0.333,0.333-0.667,0.667-1,1c1.961,0,3.922,0,5.884,0c-0.333-0.333-0.667-0.667-1-1c0,1.96,0,3.921,0,5.881c0,1.29,2,1.29,2,0
					c0-1.96,0-3.921,0-5.881c0-0.545-0.455-1-1-1c-1.961,0-3.922,0-5.884,0c-0.545,0-1,0.455-1,1c0,1.96,0,3.921,0,5.881
					c0,0.545,0.455,1,1,1c1.961,0,3.922,0,5.884,0C86.404-70.321,86.404-72.321,85.114-72.321z"/>
			</g>
		</g>
	</g>
	<g display="none">
		<path display="inline" fill="#1B1B37" d="M117.729-61.52c0-0.586,0.232-1.08,0.699-1.48c0.467-0.399,0.98-0.6,1.541-0.6
			c0.559,0,1.059,0.2,1.5,0.6c0.439,0.4,0.659,0.895,0.659,1.48c0,0.613-0.22,1.113-0.659,1.5c-0.441,0.387-0.941,0.58-1.5,0.58
			c-0.561,0-1.074-0.2-1.541-0.6C117.961-60.439,117.729-60.933,117.729-61.52z M118.008-55.52h3.721v16.561h-3.721V-55.52z"/>
		<path display="inline" fill="#1B1B37" d="M126.208-38.959l12.641-30.121h0.24l12.6,30.121h-4.439L137.808-63l2.761-1.799
			l-10.561,25.84H126.208z M133.608-49.92h10.76l1.281,3.36h-13.16L133.608-49.92z"/>
		<path display="inline" fill="#1B1B37" d="M164.808-67.879c1.466,0,2.82,0.193,4.06,0.58c1.24,0.387,2.32,0.959,3.24,1.719
			c0.92,0.761,1.641,1.694,2.16,2.801c0.52,1.107,0.78,2.394,0.78,3.859c0,1.147-0.167,2.268-0.5,3.36
			c-0.334,1.094-0.887,2.087-1.66,2.979c-0.773,0.895-1.78,1.614-3.021,2.16c-1.239,0.547-2.766,0.82-4.58,0.82h-4.279v10.641h-3.88
			v-28.92H164.808z M165.208-53.319c1.146,0,2.1-0.173,2.86-0.521c0.76-0.346,1.353-0.793,1.779-1.34
			c0.426-0.546,0.733-1.14,0.92-1.779c0.187-0.641,0.28-1.24,0.28-1.801c0-0.586-0.101-1.193-0.3-1.82
			c-0.2-0.625-0.521-1.205-0.961-1.739c-0.439-0.533-1.014-0.974-1.719-1.32c-0.707-0.347-1.567-0.521-2.58-0.521h-4.48v10.841
			H165.208z M169.968-51.119l7.56,12.16h-4.479L165.368-51L169.968-51.119z"/>
		<path display="inline" fill="#1B1B37" d="M180.968-67.879h19.2v3.719h-7.76v25.201h-3.88V-64.16h-7.561V-67.879z"/>
	</g>
	<g>
		<g>
			<path fill="none" stroke="#FFFFFF" stroke-width="4" stroke-miterlimit="10" d="M46.512-288.295l14.883,14.885l-14.752,14.738
				c-8.146,8.158-21.359,8.158-29.505,0L2.386-273.41l14.76-14.751l-0.008-0.007c8.146-8.14,21.359-8.14,29.505,0"/>
			<path fill="none" stroke="#FFFFFF" stroke-width="4" stroke-miterlimit="10" d="M46.512-279.329l14.883,14.882l-14.752,14.756
				c-8.146,8.139-21.359,8.139-29.505,0L2.386-264.447l14.76-14.744h-0.008c8.146-8.158,21.359-8.158,29.505,0"/>
			<path fill="none" stroke="#FFFFFF" stroke-width="4" stroke-miterlimit="10" d="M39.458-268.938c0-4.366-3.548-7.915-7.919-7.915
				c-4.368,0-7.914,3.549-7.914,7.915c0,4.367,3.545,7.928,7.914,7.928C35.91-261.009,39.458-264.57,39.458-268.938z"/>
		</g>
		<g>
			<path fill="#FFFFFF" d="M93.042-292.23c0-1.103,0.437-2.034,1.315-2.787c0.879-0.751,1.846-1.128,2.9-1.128
				c1.052,0,1.993,0.377,2.823,1.128c0.828,0.753,1.242,1.684,1.242,2.787c0,1.155-0.414,2.094-1.242,2.824
				c-0.83,0.726-1.771,1.091-2.823,1.091c-1.055,0-2.021-0.377-2.9-1.129C93.479-290.197,93.042-291.125,93.042-292.23z
				 M93.567-280.938h7.003v39.225h-7.003V-280.938z"/>
			<path fill="#FFFFFF" d="M108.999-241.713l23.794-56.693h0.451l23.713,56.693H148.6l-17.762-45.25l5.195-3.386l-19.879,48.636
				H108.999z M122.926-262.344h20.257l2.408,6.327h-24.768L122.926-262.344z"/>
			<path fill="#FFFFFF" d="M181.653-296.146c2.76,0,5.31,0.364,7.641,1.092c2.336,0.728,4.368,1.805,6.098,3.236
				c1.731,1.431,3.092,3.188,4.069,5.272c0.978,2.083,1.467,4.504,1.467,7.262c0,2.162-0.313,4.266-0.939,6.325
				c-0.632,2.06-1.671,3.927-3.125,5.611c-1.459,1.682-3.352,3.038-5.687,4.064c-2.332,1.028-5.204,1.544-8.621,1.544h-8.054v20.027
				h-7.304v-54.433H181.653z M182.406-268.742c2.157,0,3.953-0.324,5.384-0.978c1.432-0.652,2.547-1.493,3.352-2.525
				c0.801-1.026,1.378-2.142,1.729-3.349c0.351-1.204,0.527-2.334,0.527-3.389c0-1.103-0.188-2.246-0.565-3.425
				c-0.375-1.176-0.979-2.269-1.808-3.274c-0.825-1.003-1.907-1.831-3.235-2.483c-1.329-0.653-2.949-0.981-4.856-0.981h-8.432
				v20.405H182.406z M191.366-264.601l14.229,22.888h-8.433l-14.455-22.663L191.366-264.601z"/>
			<path fill="#FFFFFF" d="M212.068-296.146h36.14v6.999h-14.604v47.434H226.3v-47.434h-14.232V-296.146z"/>
		</g>
	</g>
	<g>
		<g>
			<path fill="#1D3557" d="M32.334,56.81c-5.854,0-11.709-2.227-16.167-6.679L0.001,33.953l16.166-16.154
				c4.318-4.321,10.061-6.701,16.168-6.701c6.043,0,11.729,2.331,16.031,6.566l0.005-0.005l16.297,16.294L48.501,50.13
				C44.044,54.583,38.189,56.81,32.334,56.81z M5.658,33.955l13.337,13.347c7.355,7.347,19.322,7.348,26.677-0.001l13.338-13.346
				L45.676,20.622l-0.005,0.005c-3.562-3.565-8.298-5.529-13.337-5.529c-4.881,0-9.479,1.843-13.001,5.199L5.658,33.955z"/>
			<path fill="#1D3557" d="M32.336,47.854c-6.108,0-11.851-2.382-16.17-6.707L0,24.992L16.167,8.824
				c8.916-8.907,23.419-8.906,32.333,0l-0.001,0.002l16.169,16.166L48.5,41.149C44.185,45.472,38.443,47.854,32.336,47.854z
				 M5.659,24.992l13.335,13.327c3.565,3.57,8.302,5.535,13.341,5.535c5.038,0,9.774-1.965,13.335-5.533L59.01,24.992L45.542,11.525
				h0c-7.241-7.1-18.837-7.179-26.175-0.233l-0.364,0.366L5.659,24.992z"/>
			<path fill="#E63947" d="M31.983,39.393c-5.467,0-9.914-4.454-9.914-9.929c0-5.465,4.447-9.911,9.914-9.911
				c5.469,0,9.919,4.446,9.919,9.911C41.902,34.938,37.453,39.393,31.983,39.393z M31.983,23.553c-3.261,0-5.914,2.651-5.914,5.911
				c0,3.27,2.653,5.929,5.914,5.929c3.264,0,5.919-2.659,5.919-5.929C37.902,26.204,35.247,23.553,31.983,23.553z"/>
		</g>
		<g>
			<path fill="#1D3557" d="M93.487,6.178c0-1.105,0.438-2.035,1.316-2.79c0.879-0.75,1.845-1.127,2.9-1.127
				c1.052,0,1.993,0.377,2.823,1.127c0.829,0.755,1.241,1.685,1.241,2.79c0,1.153-0.413,2.093-1.241,2.821
				c-0.83,0.729-1.771,1.093-2.823,1.093c-1.055,0-2.021-0.378-2.9-1.128C93.924,8.209,93.487,7.28,93.487,6.178z M94.013,17.469
				h7.002v39.225h-7.002V17.469z"/>
			<path fill="#1D3557" d="M109.445,56.693L133.239,0h0.451l23.715,56.693h-8.356l-17.772-45.249l5.197-3.388l-19.875,48.637
				H109.445z M123.372,36.063h20.254l2.411,6.326h-24.768L123.372,36.063z"/>
			<path fill="#1D3557" d="M182.1,2.261c2.76,0,5.308,0.364,7.642,1.091c2.33,0.729,4.365,1.806,6.097,3.236
				c1.734,1.43,3.087,3.187,4.064,5.272c0.978,2.084,1.467,4.506,1.467,7.265c0,2.155-0.313,4.264-0.939,6.326
				c-0.627,2.056-1.665,3.928-3.125,5.607c-1.451,1.682-3.346,3.033-5.685,4.064c-2.328,1.025-5.202,1.543-8.619,1.543h-8.055
				v20.027h-7.304V2.261H182.1z M182.851,29.66c2.158,0,3.953-0.319,5.388-0.979c1.428-0.647,2.542-1.488,3.345-2.521
				c0.801-1.021,1.383-2.146,1.734-3.345c0.351-1.208,0.527-2.339,0.527-3.394c0-1.099-0.192-2.246-0.565-3.422
				c-0.374-1.178-0.979-2.271-1.81-3.277c-0.826-1-1.904-1.831-3.231-2.483c-1.332-0.651-2.952-0.978-4.858-0.978h-8.434V29.66
				H182.851z M191.813,33.811l14.224,22.883h-8.425L183.151,34.03L191.813,33.811z"/>
			<path fill="#1D3557" d="M212.516,2.261h36.139v7.002h-14.605v47.431h-7.303V9.263h-14.23V2.261z"/>
		</g>
	</g>
</g>
</svg>
