<?xml version="1.0" encoding="UTF-8" standalone="no"?>
<!-- Created with Inkscape (http://www.inkscape.org/) -->

<svg
   xmlns:dc="http://purl.org/dc/elements/1.1/"
   xmlns:cc="http://creativecommons.org/ns#"
   xmlns:rdf="http://www.w3.org/1999/02/22-rdf-syntax-ns#"
   xmlns:svg="http://www.w3.org/2000/svg"
   xmlns="http://www.w3.org/2000/svg"
   xmlns:sodipodi="http://sodipodi.sourceforge.net/DTD/sodipodi-0.dtd"
   xmlns:inkscape="http://www.inkscape.org/namespaces/inkscape"
   width="16.003157mm"
   height="7.4718332mm"
   viewBox="0 0 16.003157 7.4718332"
   version="1.1"
   id="svg8"
   inkscape:version="0.92.4 5da689c313, 2019-01-14"
   sodipodi:docname="logo.svg">
  <defs
     id="defs2" />
  <sodipodi:namedview
     id="base"
     pagecolor="#ffffff"
     bordercolor="#666666"
     borderopacity="1.0"
     inkscape:pageopacity="0.0"
     inkscape:pageshadow="2"
     inkscape:zoom="3.959798"
     inkscape:cx="40.971764"
     inkscape:cy="32.006189"
     inkscape:document-units="mm"
     inkscape:current-layer="text817"
     showgrid="false"
     inkscape:window-width="1920"
     inkscape:window-height="1171"
     inkscape:window-x="1920"
     inkscape:window-y="0"
     inkscape:window-maximized="1"
     fit-margin-top="0"
     fit-margin-left="0"
     fit-margin-right="0"
     fit-margin-bottom="0" />
  <metadata
     id="metadata5">
    <rdf:RDF>
      <cc:Work
         rdf:about="">
        <dc:format>image/svg+xml</dc:format>
        <dc:type
           rdf:resource="http://purl.org/dc/dcmitype/StillImage" />
        <dc:title></dc:title>
      </cc:Work>
    </rdf:RDF>
  </metadata>
  <g
     inkscape:label="Layer 1"
     inkscape:groupmode="layer"
     id="layer1"
     transform="translate(-107.5569,-137.58173)">
    <g
       aria-label="iART"
       style="font-style:normal;font-weight:normal;font-size:10.58333302px;line-height:1.25;font-family:sans-serif;letter-spacing:0px;word-spacing:0px;fill:#000000;fill-opacity:1;stroke:none;stroke-width:0.26458332"
       id="text817">
      <path
         d="m 107.80032,140.49214 q -0.0952,0 -0.16933,-0.0847 -0.0741,-0.0847 -0.0741,-0.16934 v -0.29633 q 0,-0.10583 0.0741,-0.16933 0.0741,-0.0741 0.16933,-0.0741 h 1.42875 q 0.127,0 0.1905,0.0741 0.0741,0.0635 0.0741,0.16933 v 4.86833 q 0,0.10584 -0.0635,0.17992 -0.0635,0.0635 -0.17991,0.0635 h -0.35984 q -0.10583,0 -0.17991,-0.0635 -0.0635,-0.0741 -0.0635,-0.17992 v -4.318 z m 0.61383,-2.08491 q 0,-0.23284 0.15875,-0.39159 0.16934,-0.16933 0.39159,-0.16933 0.23283,0 0.39158,0.16933 0.16933,0.15875 0.16933,0.39159 0,0.22225 -0.16933,0.39158 -0.15875,0.15875 -0.39158,0.15875 -0.22225,0 -0.39159,-0.15875 -0.15875,-0.16933 -0.15875,-0.39158 z"
         style="fill:#c21222;fill-opacity:1"
         id="path880" />
      <path
         d="m 112.88049,137.58173 q 0.1905,0 0.24341,0.24341 l 1.397,6.985 q 0.0212,0.10584 -0.0318,0.17992 -0.0529,0.0635 -0.16933,0.0635 h -0.41275 q -0.21167,0 -0.254,-0.24342 l -0.26458,-1.23825 h -1.44992 l -0.254,1.23825 q -0.0423,0.24342 -0.254,0.24342 h -0.41275 q -0.11642,0 -0.16933,-0.0635 -0.0529,-0.0741 -0.0318,-0.17992 l 1.397,-6.985 q 0.0212,-0.10583 0.0741,-0.16933 0.0529,-0.0741 0.16933,-0.0741 z m 0.37041,5.1435 -0.41275,-2.62467 -0.14816,-1.42875 h -0.0423 l -0.14816,1.42875 -0.41275,2.62467 z"
         style="fill:#555555;fill-opacity:1"
         id="path882" />
      <path
         d="m 119.36625,144.81014 q 0.0212,0.0635 -0.0212,0.15875 -0.0423,0.0847 -0.17991,0.0847 h -0.42334 q -0.10583,0 -0.16933,-0.0423 -0.0635,-0.0529 -0.10583,-0.20109 l -1.00542,-3.27025 -0.94192,0.0106 v 3.25966 q 0,0.0847 -0.0635,0.16934 -0.0635,0.0741 -0.17991,0.0741 h -0.35984 q -0.10583,0 -0.17991,-0.0741 -0.0635,-0.0847 -0.0635,-0.16934 v -6.985 q 0,-0.10583 0.0741,-0.16933 0.0847,-0.0741 0.16933,-0.0741 h 1.28059 q 0.62441,0 1.04775,0.10583 0.43391,0.10583 0.67733,0.47625 0.17992,0.26458 0.254,0.61383 0.0847,0.33867 0.0847,0.8255 0,0.762 -0.21167,1.16417 -0.21167,0.40217 -0.74083,0.61383 z m -2.84692,-4.10633 h 0.6985 q 0.30692,0 0.49742,-0.0212 0.20108,-0.0317 0.34925,-0.14816 0.10583,-0.0741 0.16933,-0.14817 0.0635,-0.0847 0.10584,-0.17992 0.0423,-0.10583 0.0529,-0.24341 0.0212,-0.14817 0.0212,-0.35984 0,-0.4445 -0.0952,-0.67733 -0.0953,-0.24342 -0.26458,-0.35983 -0.0847,-0.0529 -0.16934,-0.0741 -0.0847,-0.0318 -0.24341,-0.0423 -0.15875,-0.0106 -0.42334,-0.0106 -0.26458,0 -0.6985,0 z"
         style="fill:#555555;fill-opacity:1"
         id="path884" />
      <path
         d="m 123.56006,138.18498 q 0,0.10583 -0.0847,0.17991 -0.0741,0.0635 -0.16933,0.0635 h -1.19592 v 6.37117 q 0,0.0952 -0.0635,0.17992 -0.0635,0.0741 -0.17991,0.0741 h -0.35984 q -0.10583,0 -0.17991,-0.0741 -0.0635,-0.0847 -0.0635,-0.17992 v -6.37117 h -1.21709 q -0.0847,0 -0.16933,-0.0635 -0.0741,-0.0741 -0.0741,-0.17991 v -0.35984 q 0,-0.11641 0.0741,-0.17991 0.0847,-0.0635 0.16933,-0.0635 h 3.25967 q 0.0952,0 0.16933,0.0635 0.0847,0.0635 0.0847,0.17991 z"
         style="fill:#555555;fill-opacity:1"
         id="path886" />
    </g>
  </g>
</svg>
